<svg width="230" height="60" viewBox="0 0 230 60" fill="none" xmlns="http://www.w3.org/2000/svg">
<path fill-rule="evenodd" clip-rule="evenodd" d="M18.4364 0.112796C10.8419 0.751026 3.76516 3.46631 0.304953 7.06924L0 7.38675L0.0263668 21.5162L0.0305153 23.7894C0.0499247 34.6097 0.0525071 36.0493 0.299977 37.4452C0.337949 37.6594 0.381704 37.8727 0.432154 38.1186C0.453966 38.2249 0.47711 38.3377 0.501507 38.4589C2.18953 46.8483 8.97278 53.9845 20.2909 59.2778C20.4193 59.3378 20.538 59.3936 20.6479 59.4452C21.6025 59.8935 21.8983 60.0324 22.1681 59.9939C22.2887 59.9766 22.4044 59.9239 22.5715 59.8478C22.6145 59.8282 22.6614 59.8068 22.7121 59.7844C34.6292 54.5047 41.9108 47.0353 43.6481 38.3073C43.6657 38.219 43.6825 38.1356 43.6986 38.0557L43.6988 38.0546C43.7447 37.8271 43.7848 37.6282 43.8199 37.4284C44.0635 36.0422 44.0662 34.6134 44.0873 23.2814L44.0907 21.4663L44.1176 7.35818L43.5996 6.87697C40.0984 3.62386 34.1951 1.158 28.0031 0.362214C25.2029 0.00250843 21.0398 -0.106178 18.4364 0.112796ZM24.5802 2.99845C31.1283 3.41344 36.7458 5.26323 40.7379 8.31953L41.0929 8.59138L41.1131 21.6911C41.1336 35.1273 41.1249 35.655 40.8516 37.218C39.5343 44.7537 34.0691 50.7701 23.8345 55.9513L22.0588 56.8501L20.887 56.2757C9.69481 50.7901 3.87169 44.0738 3.06204 35.7167C3.02022 35.286 2.99226 29.8001 2.99119 21.8252L2.98933 8.64585L3.14913 8.50032C7.20806 4.80312 16.285 2.47291 24.5802 2.99845ZM20.5319 4.60871C14.5309 4.85973 9.18585 6.37039 5.43348 8.87578L4.62302 9.41707V18.3833V27.3495H13.3231H22.0234V41.1643C22.0234 48.7628 22.0444 54.9795 22.0703 54.9795C22.1528 54.9795 25.2295 53.377 25.9651 52.9508C33.3306 48.6837 37.6428 43.7325 39.0059 37.9783C39.4046 36.2951 39.4408 35.7877 39.476 31.3906L39.509 27.2782H30.8018H22.0945V15.9201V4.56198L21.544 4.5756C21.2412 4.58308 20.7857 4.59803 20.5319 4.60871ZM31.2481 7.89867C30.1218 8.61488 29.9609 10.2612 30.8787 11.6762C31.1421 12.0821 31.1424 11.6324 30.8793 11.0904C30.1642 9.61655 30.3162 8.77964 31.4695 7.84393C31.7251 7.63644 31.6194 7.66261 31.2481 7.89867ZM36.4321 9.60881C35.2543 10.0769 33.6052 11.0249 33.5029 11.2925C33.4787 11.3555 33.4318 11.3902 33.3982 11.3697C33.1695 11.2276 30.8321 13.623 30.4278 14.4137C30.3647 14.5371 30.2355 14.7315 30.1407 14.8452C29.5891 15.5078 28.6956 17.7664 28.3914 19.2669C28.217 20.1276 27.5149 21.9488 26.6001 23.9132C26.208 24.7552 26.2168 24.8128 26.6861 24.4809C26.8755 24.3471 27.1666 24.1626 27.3328 24.071L27.6351 23.9046L27.4587 23.7198L27.2822 23.535L27.8359 22.2556C29.4632 18.4944 30.3639 16.8844 31.9473 14.9064C32.677 13.9947 32.7122 14.0179 32.0152 14.9512C30.8894 16.4595 28.9835 19.9869 28.9835 20.5626C28.9835 20.8401 30.7008 19.926 31.4924 19.2274C31.8945 18.8725 31.8892 18.8485 31.437 18.9846C30.8436 19.1638 30.9099 19.0973 31.7646 18.6567C32.7835 18.1312 33.6513 17.2839 34.5323 15.954L34.5535 15.922C34.9038 15.3933 35.0466 15.1779 35.0053 15.1332C34.9769 15.1024 34.8615 15.1524 34.6667 15.2368L34.6497 15.2442C33.6148 15.6926 33.6031 15.6501 34.6101 15.1011C35.3872 14.6775 35.7204 14.3245 36.4267 13.1773C37.0715 12.1297 37.0718 12.1243 36.4552 12.2846C36.2211 12.3455 36.0083 12.3951 35.9822 12.3951C35.9561 12.3951 36.1527 12.2458 36.4187 12.0632C37.5104 11.3141 37.7193 11.0068 37.7193 10.1493C37.7193 9.33776 37.4247 9.21412 36.4321 9.60881ZM14.117 12.471C16.3899 12.7818 17.0286 15.0541 15.107 15.9916C14.7927 16.1449 14.6614 16.2387 14.7599 16.2395C16.6424 16.2533 17.6103 18.6714 16.2709 20.0146C15.5012 20.7861 14.7016 20.9557 11.9581 20.9282C9.82132 20.9065 9.6506 20.8887 10.1961 20.7426C10.2204 20.736 10.2437 20.7301 10.266 20.7243C10.3667 20.6986 10.4472 20.6779 10.5115 20.6337C10.7672 20.4577 10.7671 19.9079 10.7664 17.1713L10.7663 16.694L10.7663 16.3903C10.7666 13.4673 10.7666 12.9271 10.5142 12.7513C10.457 12.7114 10.3868 12.6903 10.3007 12.6643L10.2618 12.6526C10.1486 12.6178 10.0083 12.5698 9.9497 12.5457C9.8911 12.5217 10.4664 12.4848 11.2281 12.464C11.9898 12.4432 12.8264 12.4192 13.0871 12.4106C13.3481 12.4021 13.8115 12.4293 14.117 12.471ZM12.1134 12.6285C12.0239 12.679 12.0093 13.2438 12.0093 16.6689V20.6507L12.1621 20.7327C12.4317 20.8772 13.8954 20.7829 14.3176 20.5938C15.226 20.1866 15.6253 19.3422 15.4801 18.1336C15.3326 16.9036 14.5152 16.3118 12.9646 16.3118C12.238 16.3118 12.2977 16.201 13.0554 16.1425C14.4915 16.032 14.8782 15.6835 14.883 14.4959C14.8883 13.22 14.2646 12.6584 12.7704 12.5941C12.4663 12.581 12.1707 12.5965 12.1134 12.6285ZM34.7949 17.2804C34.6905 17.3853 34.698 17.4321 34.8863 17.8484C36.3292 21.0395 35.1276 22.1141 31.1768 21.1656C30.6425 21.0374 30.6329 21.0374 30.4398 21.1787L30.2441 21.3215L30.5549 21.4147C35.0908 22.7742 36.9064 21.3461 35.2527 17.7191C34.9811 17.1228 34.9662 17.1087 34.7949 17.2804ZM26.1071 19.7033C26.0291 19.7187 25.7894 19.7668 25.5744 19.8103C23.5495 20.2194 23.3063 22.0321 24.9664 24.3439C25.2868 24.7901 25.3989 24.7917 25.0934 24.3458C23.4717 21.9769 23.8299 20.3044 26.0168 20.0341C26.4049 19.9863 26.4653 19.9585 26.485 19.8189C26.5082 19.6552 26.4467 19.6362 26.1071 19.7033ZM12.9531 30.2594C11.0363 31.7786 10.6696 33.8479 11.8662 36.3934C12.5864 37.9249 12.8615 38.981 12.8615 40.2123V40.8084H13.8451H14.8287L14.9637 40.5058C15.3057 39.7391 16.4027 38.9156 17.3042 38.7487L17.3498 38.7402L17.4182 38.7273C17.7299 38.6685 17.8874 38.6388 17.9668 38.7043C18.0478 38.7711 18.0474 38.9373 18.0465 39.2731C18.0463 39.3109 18.0462 39.3508 18.0462 39.3931V40.1141L18.2769 40.0679C21.0745 39.5079 21.5339 35.6897 18.8564 35.2528C16.9154 34.9361 15.1887 36.6855 14.165 40.0062C13.904 40.853 13.8238 40.8431 13.8858 39.9717C13.9809 38.6432 14.206 37.8367 14.8849 36.3934C16.0501 33.916 15.7017 31.7797 13.8949 30.3246L13.8903 30.3209C13.6238 30.1063 13.4984 30.0054 13.3756 30.0084C13.2665 30.0112 13.1594 30.096 12.9573 30.2562L12.9531 30.2594ZM32.6389 33.6768C33.6843 34.0544 33.888 34.4373 33.6345 35.5501C33.2627 37.1828 33.2424 37.206 33.2193 36.0265C33.1881 34.4274 32.5452 33.7368 31.0787 33.7272C29.7575 33.7184 29.1369 34.3094 29.408 35.3188C29.5596 35.8833 29.9703 36.1992 31.911 37.2447C33.7517 38.2362 34.3728 39.3469 33.7946 40.6134C33.1066 42.1201 30.5365 42.7193 28.8061 41.7764C27.8921 41.2786 27.7946 40.951 28.1411 39.5426C28.4282 38.3764 28.4583 38.3585 28.506 39.3266C28.5997 41.2332 29.2288 41.9121 30.9011 41.9121C32.228 41.9121 32.8198 41.4525 32.8182 40.4233C32.8166 39.388 32.3843 38.9498 30.1825 37.7502C28.4341 36.7977 27.8819 35.8337 28.4836 34.782C29.122 33.6658 31.1299 33.1317 32.6389 33.6768ZM7.74791 35.2795C5.21242 35.8494 5.80022 39.6363 8.49205 40.0743L8.74214 40.1149V39.3843V38.6536L9.17813 38.703C10.2877 38.8291 11.3077 39.5511 11.8252 40.5769C11.96 40.8442 12.7904 40.948 12.7904 40.6976C12.7904 40.5168 12.1557 38.6782 11.9025 38.1254C10.99 36.1341 9.24977 34.942 7.74791 35.2795ZM11.5267 41.3102C11.1333 41.4685 11.092 42.2216 11.4622 42.4817C11.659 42.6197 14.9743 42.6411 15.2276 42.5057C15.6271 42.2926 15.6876 41.7796 15.3528 41.4437L15.1451 41.2356L13.4174 41.2402C12.4671 41.2426 11.6164 41.2741 11.5267 41.3102ZM11.8673 43.3234C11.8673 44.0716 11.4987 44.6898 11.0049 44.7702C10.6627 44.826 10.2514 44.6431 10.1931 44.4092C10.0754 43.9392 9.8373 44.8314 9.94863 45.3257C10.1822 46.3647 11.8945 46.3679 12.3723 45.3302L12.5033 45.0455L12.506 45.3302C12.5129 46.0208 12.869 47.168 13.2 47.5656L13.3987 47.8041L13.5995 47.5133C13.8776 47.1111 14.1122 46.4275 14.2156 45.719C14.288 45.2229 14.3138 45.151 14.3674 45.2968C14.5445 45.778 15.0311 46.0779 15.6349 46.0779C16.6323 46.0779 17.0512 45.4597 16.762 44.4151L16.6861 44.1405L16.567 44.3785C16.0746 45.363 15.0588 44.7448 14.8841 43.3541L14.8414 43.016H13.3542H11.8673V43.3234Z" fill="white"/>
<path fill-rule="evenodd" clip-rule="evenodd" d="M155.69 16.792C155.641 16.792 155.617 16.7801 155.617 16.7563C155.617 16.7205 155.641 16.6967 155.69 16.6848C156.019 16.6371 156.27 16.5656 156.441 16.4702C156.624 16.3629 156.752 16.196 156.825 15.9695C156.911 15.743 156.953 15.4152 156.953 14.9861C156.953 14.3662 157.081 13.8298 157.338 13.3768C157.606 12.9238 157.948 12.5841 158.363 12.3576C158.791 12.1192 159.23 12 159.682 12C160.146 12 160.549 12.1133 160.89 12.3397C160.939 12.3755 160.964 12.4172 160.964 12.4649C160.964 12.5007 160.945 12.5483 160.909 12.608C160.823 12.7033 160.658 12.8702 160.414 13.1086C160.243 13.2516 160.134 13.353 160.085 13.4126C159.987 13.5079 159.908 13.5139 159.847 13.4305C159.615 13.1801 159.371 12.9894 159.114 12.8583C158.858 12.7152 158.62 12.6437 158.4 12.6437C158.144 12.6437 157.93 12.7391 157.759 12.9298C157.649 13.049 157.594 13.2516 157.594 13.5378C157.594 14.2411 157.893 15.2543 158.492 16.5775C158.565 16.649 158.681 16.6848 158.839 16.6848H160.781C160.805 16.6848 160.811 16.7027 160.799 16.7384C160.787 16.7742 160.756 16.792 160.707 16.792H159.004C158.821 16.792 158.687 16.8278 158.601 16.8993C158.528 16.9589 158.492 17.096 158.492 17.3106V23.1397C158.492 23.6881 158.614 24.0755 158.858 24.302C159.102 24.5165 159.48 24.6238 159.993 24.6238C160.079 24.6238 160.121 24.6477 160.121 24.6954C160.121 24.743 160.079 24.7669 159.993 24.7669C159.749 24.755 159.273 24.749 158.565 24.749H156.807C156.441 24.749 156.074 24.7609 155.708 24.7847C155.647 24.7847 155.617 24.7609 155.617 24.7132C155.617 24.6655 155.647 24.6417 155.708 24.6417C156.099 24.6417 156.386 24.5285 156.569 24.302C156.752 24.0755 156.843 23.694 156.843 23.1576V17.3106C156.843 17.1199 156.819 16.9887 156.77 16.9172C156.721 16.8338 156.624 16.792 156.477 16.792H155.69ZM149.724 25.0172C148.918 25.0172 148.186 24.8444 147.526 24.4987C146.879 24.153 146.367 23.6642 145.988 23.0324C145.622 22.4007 145.439 21.6795 145.439 20.8689C145.439 20.0583 145.646 19.3132 146.061 18.6338C146.477 17.9543 147.05 17.4179 147.783 17.0245C148.515 16.6192 149.327 16.4165 150.218 16.4165C151.036 16.4165 151.775 16.5894 152.434 16.9351C153.093 17.2808 153.612 17.7695 153.991 18.4013C154.381 19.0212 154.577 19.7364 154.577 20.547C154.577 21.3576 154.363 22.1086 153.936 22.8C153.508 23.4795 152.922 24.0218 152.178 24.4271C151.445 24.8205 150.627 25.0172 149.724 25.0172ZM150.53 24.6059C151.348 24.6059 151.989 24.3795 152.452 23.9265C152.916 23.4735 153.148 22.8059 153.148 21.9238C153.148 21.1967 152.965 20.4338 152.599 19.6351C152.245 18.8364 151.775 18.1689 151.189 17.6324C150.615 17.096 150.023 16.8278 149.413 16.8278C148.607 16.8278 147.978 17.0543 147.526 17.5073C147.075 17.9483 146.849 18.6099 146.849 19.4921C146.849 20.2073 147.026 20.9702 147.38 21.7808C147.746 22.5795 148.21 23.253 148.772 23.8013C149.345 24.3377 149.931 24.6059 150.53 24.6059ZM62.8442 24.3285C63.6353 24.7624 64.5624 24.9793 65.6255 24.9793C66.6145 24.9793 67.4736 24.7624 68.2029 24.3285C68.9446 23.8827 69.5132 23.256 69.9088 22.4485C70.3044 21.629 70.5022 20.671 70.5022 19.5743V13.7535C70.5022 13.163 70.5887 12.7532 70.7618 12.5242C70.9472 12.2832 71.2191 12.1506 71.5776 12.1265C71.6394 12.1265 71.6641 12.1085 71.6518 12.0723C71.6518 12.0241 71.6209 12 71.5591 12C71.2253 12.0362 70.9595 12.0542 70.7618 12.0542H69.9644C69.7172 12.0542 69.3155 12.0362 68.7592 12C68.685 12 68.6418 12.0241 68.6294 12.0723C68.6294 12.1085 68.6727 12.1265 68.7592 12.1265C69.3031 12.1506 69.7048 12.2832 69.9644 12.5242C70.2364 12.7532 70.3724 13.163 70.3724 13.7535L70.3909 19.6104C70.3909 20.5263 70.2178 21.3338 69.8717 22.0328C69.538 22.7197 69.062 23.256 68.444 23.6416C67.8259 24.0273 67.1027 24.2201 66.2745 24.2201C65.0013 24.2201 63.9938 23.8164 63.2521 23.0089C62.5228 22.1894 62.1581 21.0928 62.1581 19.7189V13.7535C62.1581 13.163 62.2879 12.7532 62.5475 12.5242C62.8195 12.2832 63.2274 12.1506 63.7713 12.1265C63.8578 12.1265 63.8949 12.1085 63.8826 12.0723C63.8826 12.0241 63.8455 12 63.7713 12C63.215 12.0362 62.8133 12.0542 62.5661 12.0542H60.0999C59.9145 12.0542 59.6178 12.0362 59.2099 12C59.1481 12 59.1172 12.0241 59.1172 12.0723C59.1172 12.1085 59.1481 12.1265 59.2099 12.1265C59.6055 12.1506 59.896 12.2832 60.0814 12.5242C60.2792 12.7532 60.3781 13.163 60.3781 13.7535V19.6466C60.3781 20.7192 60.5882 21.6592 61.0085 22.4666C61.4412 23.2741 62.0531 23.8947 62.8442 24.3285ZM83.1961 21.8158C83.1467 21.8158 83.1219 21.846 83.1219 21.9062C83.1219 22.3642 83.0787 22.7498 82.9921 23.0632C82.9056 23.3644 82.7943 23.5874 82.6584 23.732C82.5224 23.8766 82.3926 23.9489 82.269 23.9489C82.0959 23.9489 81.9476 23.8646 81.824 23.6959C81.7127 23.5151 81.6138 23.2499 81.5273 22.9005L80.3777 18.3631C80.2046 17.6521 79.9265 17.1279 79.5433 16.7904C79.1724 16.453 78.5853 16.2843 77.7817 16.2843C77.0771 16.2843 76.422 16.5253 75.8163 17.0074C75.2229 17.4894 74.8273 18.0679 74.6296 18.7427C74.6296 18.3089 74.6419 17.9353 74.6666 17.622C74.6914 17.3086 74.7408 16.8868 74.815 16.3566C74.815 16.3084 74.7903 16.2782 74.7408 16.2662C74.7037 16.2541 74.6605 16.2662 74.611 16.3023C74.03 16.688 73.0905 17.0375 71.7926 17.3508C71.7555 17.3629 71.737 17.387 71.737 17.4231C71.7493 17.4472 71.7802 17.4532 71.8297 17.4412C72.0027 17.4171 72.114 17.405 72.1634 17.405C72.4601 17.405 72.6641 17.4954 72.7753 17.6762C72.8989 17.857 72.9607 18.1402 72.9607 18.5258V23.2981C72.9607 23.6838 72.9175 23.973 72.831 24.1658C72.7568 24.3466 72.6455 24.4671 72.4972 24.5274C72.3489 24.5876 72.1387 24.6178 71.8667 24.6178C71.8049 24.6178 71.774 24.6419 71.774 24.6901C71.774 24.7262 71.8049 24.7443 71.8667 24.7443C72.1511 24.7323 72.8 24.7262 73.8137 24.7262C74.8397 24.7262 75.4825 24.7323 75.7421 24.7443C75.8039 24.7443 75.8348 24.7262 75.8348 24.6901C75.8348 24.6419 75.8039 24.6178 75.7421 24.6178C75.3589 24.6057 75.0746 24.5033 74.8891 24.3105C74.7161 24.1177 74.6296 23.7862 74.6296 23.3162V19.8274C74.7037 18.9476 74.9571 18.2547 75.3898 17.7485C75.8348 17.2303 76.3664 16.9712 76.9844 16.9712C77.5283 16.9712 77.9115 17.0917 78.134 17.3327C78.3689 17.5617 78.5543 17.9413 78.6903 18.4716L79.8585 23.1716C80.1428 24.3526 80.6373 24.9432 81.3419 24.9432C81.6633 24.9432 81.9723 24.8287 82.269 24.5997C82.5657 24.3707 82.8067 24.0273 82.9921 23.5693C83.1775 23.1114 83.2703 22.557 83.2703 21.9062C83.2703 21.8339 83.2455 21.8038 83.1961 21.8158ZM86.388 24.1839C86.5858 24.4611 86.8639 24.6057 87.2224 24.6178C87.2842 24.6178 87.3151 24.6419 87.3151 24.6901C87.3151 24.7262 87.2842 24.7443 87.2224 24.7443C86.9999 24.7323 86.3571 24.7262 85.294 24.7262C84.2309 24.7262 83.5819 24.7323 83.347 24.7443C83.2852 24.7443 83.2543 24.7262 83.2543 24.6901C83.2543 24.6419 83.2852 24.6178 83.347 24.6178C84.0764 24.6178 84.441 24.1116 84.441 23.0993V18.5258C84.441 18.1402 84.3792 17.857 84.2556 17.6762C84.1444 17.4954 83.9404 17.405 83.6437 17.405C83.5943 17.405 83.483 17.4171 83.31 17.4412C83.2605 17.4532 83.2296 17.4472 83.2172 17.4231C83.2172 17.387 83.2358 17.3629 83.2729 17.3508C84.5708 17.0375 85.5103 16.688 86.0913 16.3023C86.1407 16.2662 86.184 16.2541 86.2211 16.2662C86.2705 16.2782 86.2953 16.3084 86.2953 16.3566C86.2211 16.8989 86.1717 17.3327 86.1469 17.6581C86.1222 17.9835 86.1098 18.3752 86.1098 18.8331V23.0993C86.1098 23.5332 86.2025 23.8947 86.388 24.1839ZM85.0158 14.1692C84.6944 14.1692 84.441 14.103 84.2556 13.9704C84.0702 13.8258 83.9775 13.651 83.9775 13.4462C83.9775 13.181 84.1011 12.9581 84.3483 12.7773C84.5956 12.5845 84.9169 12.4881 85.3125 12.4881C85.6339 12.4881 85.8873 12.5604 86.0728 12.705C86.2705 12.8376 86.3694 13.0123 86.3694 13.2292C86.3694 13.4823 86.2396 13.7053 85.98 13.8981C85.7328 14.0789 85.4114 14.1692 85.0158 14.1692ZM97.4279 16.6096C97.4279 16.5614 97.4032 16.5373 97.3537 16.5373L96.5749 16.5554H96.3524L94.9989 16.5373C94.9247 16.5373 94.8876 16.5614 94.8876 16.6096C94.8876 16.6458 94.9247 16.6639 94.9989 16.6639C95.7653 16.6639 96.1485 16.9169 96.1485 17.4231C96.1485 17.5918 96.0928 17.8148 95.9816 18.092L93.5896 23.5332C93.5525 23.6055 93.5155 23.6416 93.4784 23.6416C93.4536 23.6296 93.4289 23.5934 93.4042 23.5332L91.0122 18.092C90.901 17.8148 90.8454 17.5918 90.8454 17.4231C90.8454 16.9169 91.2409 16.6639 92.0321 16.6639C92.1062 16.6639 92.1433 16.6458 92.1433 16.6096C92.1433 16.5614 92.1062 16.5373 92.0321 16.5373L90.6414 16.5554H88.7686L87.9713 16.5373C87.9342 16.5373 87.9157 16.5614 87.9157 16.6096C87.9157 16.6458 87.9342 16.6639 87.9713 16.6639C88.2309 16.6639 88.441 16.7663 88.6018 16.9712C88.7625 17.164 88.9664 17.5376 89.2136 18.092L92.1619 24.8166C92.1866 24.8889 92.2299 24.9251 92.2917 24.9251C92.3288 24.9251 92.3597 24.9191 92.3844 24.907L93.6638 24.4551C93.7503 24.4189 93.7751 24.3587 93.738 24.2743L93.6267 24.0393C93.5896 23.979 93.5834 23.9067 93.6082 23.8224L96.1299 18.092C96.3648 17.5497 96.5626 17.1761 96.7233 16.9712C96.8964 16.7663 97.1065 16.6639 97.3537 16.6639C97.4032 16.6639 97.4279 16.6458 97.4279 16.6096ZM105.258 23.1535C105.27 23.1294 105.288 23.1294 105.313 23.1535C105.35 23.1776 105.356 23.2078 105.332 23.2439C104.862 23.8224 104.306 24.2562 103.663 24.5455C103.02 24.8226 102.328 24.9612 101.586 24.9612C100.832 24.9612 100.134 24.7865 99.4909 24.437C98.8481 24.0875 98.3351 23.5934 97.9519 22.9547C97.5687 22.316 97.377 21.5869 97.377 20.7674C97.377 19.9238 97.581 19.1645 97.9889 18.4897C98.4092 17.8027 98.9717 17.2664 99.6763 16.8808C100.381 16.4831 101.147 16.2843 101.976 16.2843C102.903 16.2843 103.669 16.5373 104.275 17.0435C104.893 17.5497 105.202 18.2306 105.202 19.0862C105.202 19.508 105.134 19.9177 104.998 20.3154C103.984 20.3275 101.932 20.3757 98.8419 20.4601C98.9902 21.1711 99.2807 21.8038 99.7134 22.3582C100.158 22.9125 100.671 23.3403 101.252 23.6416C101.833 23.9429 102.402 24.0935 102.958 24.0935C103.984 24.0935 104.751 23.7802 105.258 23.1535ZM101.271 16.5916C100.455 16.5916 99.8308 16.8326 99.3981 17.3147C98.9655 17.7847 98.7492 18.5017 98.7492 19.4658C98.7492 19.8032 98.7739 20.0985 98.8233 20.3516L101.011 20.2793C101.543 20.2431 102.365 20.213 103.477 20.1889C103.576 19.9961 103.626 19.755 103.626 19.4658C103.626 19.044 103.515 18.6102 103.292 18.1643C103.07 17.7063 102.773 17.3327 102.402 17.0435C102.044 16.7422 101.666 16.5916 101.271 16.5916ZM112.962 16.6277C112.579 16.3988 112.14 16.2843 111.646 16.2843C110.916 16.2843 110.36 16.5675 109.977 17.1339C109.594 17.7003 109.322 18.3752 109.161 19.1585V18.8331C109.161 18.3752 109.173 17.9835 109.198 17.6581C109.223 17.3327 109.272 16.8989 109.346 16.3566C109.346 16.3084 109.322 16.2782 109.272 16.2662C109.235 16.2541 109.192 16.2662 109.142 16.3023C108.561 16.688 107.622 17.0375 106.324 17.3508C106.287 17.3629 106.268 17.387 106.268 17.4231C106.281 17.4472 106.312 17.4532 106.361 17.4412C106.534 17.4171 106.645 17.405 106.695 17.405C106.992 17.405 107.195 17.4954 107.307 17.6762C107.43 17.857 107.492 18.1402 107.492 18.5258V23.2981C107.492 23.6838 107.449 23.973 107.362 24.1658C107.288 24.3466 107.177 24.4671 107.029 24.5274C106.88 24.5876 106.67 24.6178 106.398 24.6178C106.336 24.6178 106.305 24.6419 106.305 24.6901C106.305 24.7262 106.336 24.7443 106.398 24.7443C106.682 24.7323 107.331 24.7262 108.345 24.7262C109.371 24.7262 110.014 24.7323 110.273 24.7443C110.335 24.7443 110.366 24.7262 110.366 24.6901C110.366 24.6419 110.335 24.6178 110.273 24.6178C109.89 24.6057 109.606 24.5033 109.421 24.3105C109.247 24.1177 109.161 23.7862 109.161 23.3162V20.8035C109.161 19.8635 109.278 19.0802 109.513 18.4535C109.76 17.8268 110.218 17.5135 110.885 17.5135C111.442 17.5135 111.887 17.6822 112.22 18.0197C112.567 18.345 112.74 18.8512 112.74 19.5381C112.74 19.7671 112.709 20.0744 112.647 20.4601C112.635 20.5324 112.647 20.5746 112.684 20.5866C112.721 20.5986 112.746 20.5685 112.758 20.4962L113.537 17.6762C113.549 17.628 113.555 17.5617 113.555 17.4773C113.555 17.1399 113.358 16.8567 112.962 16.6277ZM114.701 21.4724C114.713 21.4242 114.732 21.4061 114.757 21.4181C114.794 21.4181 114.812 21.4422 114.812 21.4905C114.788 22.5389 115.016 23.3343 115.498 23.8766C115.98 24.4189 116.679 24.6901 117.594 24.6901C118.212 24.6901 118.688 24.5937 119.021 24.4008C119.368 24.208 119.541 23.8766 119.541 23.4066C119.528 22.9125 119.312 22.4907 118.892 22.1412C118.484 21.7797 117.835 21.3699 116.945 20.912C116.141 20.4781 115.535 20.0865 115.128 19.737C114.72 19.3875 114.516 18.9777 114.516 18.5077C114.516 18.1221 114.664 17.7606 114.961 17.4231C115.257 17.0736 115.665 16.7964 116.184 16.5916C116.704 16.3867 117.285 16.2843 117.927 16.2843C118.731 16.2843 119.454 16.3927 120.097 16.6096C120.752 16.8266 121.03 17.1399 120.931 17.5497L120.412 19.5562C120.4 19.5924 120.375 19.6104 120.338 19.6104C120.313 19.6104 120.307 19.5863 120.319 19.5381C120.319 18.5258 120.103 17.7847 119.67 17.3147C119.25 16.8326 118.57 16.5916 117.631 16.5916C116.988 16.5916 116.543 16.682 116.296 16.8627C116.061 17.0435 115.943 17.2905 115.943 17.6039C115.943 17.857 116.042 18.098 116.24 18.327C116.438 18.5439 116.691 18.7488 117 18.9416C117.309 19.1223 117.779 19.3815 118.41 19.7189C119.25 20.1648 119.911 20.6047 120.394 21.0385C120.888 21.4603 121.135 21.9665 121.135 22.557C121.135 22.9908 120.975 23.3946 120.653 23.7682C120.344 24.1297 119.899 24.425 119.318 24.6539C118.749 24.8709 118.1 24.9793 117.371 24.9793C116.778 24.9793 116.228 24.913 115.721 24.7805C115.226 24.66 114.843 24.4852 114.571 24.2562C114.299 24.0273 114.188 23.7802 114.237 23.5151L114.701 21.4724ZM126.19 24.6178C125.832 24.6057 125.554 24.4611 125.356 24.1839C125.17 23.8947 125.078 23.5332 125.078 23.0993V18.8331C125.078 18.3752 125.09 17.9835 125.115 17.6581C125.139 17.3327 125.189 16.8989 125.263 16.3566C125.263 16.3084 125.238 16.2782 125.189 16.2662C125.152 16.2541 125.109 16.2662 125.059 16.3023C124.478 16.688 123.539 17.0375 122.241 17.3508C122.204 17.3629 122.185 17.387 122.185 17.4231C122.197 17.4472 122.228 17.4532 122.278 17.4412C122.451 17.4171 122.562 17.405 122.612 17.405C122.908 17.405 123.112 17.4954 123.223 17.6762C123.347 17.857 123.409 18.1402 123.409 18.5258V23.0993C123.409 24.1116 123.044 24.6178 122.315 24.6178C122.253 24.6178 122.222 24.6419 122.222 24.6901C122.222 24.7262 122.253 24.7443 122.315 24.7443C122.55 24.7323 123.199 24.7262 124.262 24.7262C125.325 24.7262 125.968 24.7323 126.19 24.7443C126.252 24.7443 126.283 24.7262 126.283 24.6901C126.283 24.6419 126.252 24.6178 126.19 24.6178ZM123.223 13.9704C123.409 14.103 123.662 14.1692 123.984 14.1692C124.379 14.1692 124.701 14.0789 124.948 13.8981C125.207 13.7053 125.337 13.4823 125.337 13.2292C125.337 13.0123 125.238 12.8376 125.041 12.705C124.855 12.5604 124.602 12.4881 124.28 12.4881C123.885 12.4881 123.563 12.5845 123.316 12.7773C123.069 12.9581 122.945 13.181 122.945 13.4462C122.945 13.651 123.038 13.8258 123.223 13.9704ZM129.85 24.9612C129.381 24.9612 128.991 24.7865 128.682 24.437C128.385 24.0875 128.237 23.6356 128.237 23.0812V17.17C128.237 17.0013 128.212 16.8748 128.163 16.7904C128.126 16.7061 128.021 16.6639 127.848 16.6639H127.217C127.155 16.6639 127.125 16.6518 127.125 16.6277C127.125 16.5916 127.149 16.5675 127.199 16.5554C127.866 16.447 128.441 16.1818 128.923 15.76C129.405 15.3262 129.72 14.7658 129.869 14.0789C129.894 14.0066 129.918 13.9704 129.943 13.9704C129.98 13.9704 129.999 14.0066 129.999 14.0789C129.986 14.8019 129.961 15.513 129.924 16.212V16.2662C129.924 16.3867 129.955 16.465 130.017 16.5012C130.079 16.5373 130.196 16.5554 130.369 16.5554H132.149C132.174 16.5554 132.18 16.5735 132.168 16.6096C132.156 16.6458 132.125 16.6639 132.075 16.6639H130.444C130.233 16.6639 130.091 16.7 130.017 16.7723C129.943 16.8326 129.906 16.9591 129.906 17.152V22.6835C129.906 23.1053 129.999 23.4367 130.184 23.6778C130.369 23.9067 130.61 24.0212 130.907 24.0212C131.13 24.0212 131.365 23.9489 131.612 23.8043C131.871 23.6476 132.112 23.4187 132.335 23.1174C132.384 23.0571 132.421 23.0391 132.446 23.0632C132.471 23.0752 132.465 23.1114 132.428 23.1716C132.007 23.7742 131.575 24.2261 131.13 24.5274C130.685 24.8166 130.258 24.9612 129.85 24.9612ZM142.063 16.6096C142.063 16.5614 142.039 16.5373 141.989 16.5373L141.21 16.5554H140.988L139.597 16.5373C139.523 16.5373 139.486 16.5614 139.486 16.6096C139.486 16.6458 139.523 16.6639 139.597 16.6639C140.388 16.6639 140.784 16.923 140.784 17.4412C140.784 17.622 140.728 17.8389 140.617 18.092L138.225 23.5332C138.163 23.6657 138.095 23.6657 138.021 23.5332L135.648 18.092C135.537 17.8148 135.481 17.5918 135.481 17.4231C135.481 16.9169 135.858 16.6639 136.612 16.6639C136.686 16.6639 136.723 16.6458 136.723 16.6096C136.723 16.5614 136.686 16.5373 136.612 16.5373L135.277 16.5554H133.404L132.607 16.5373C132.57 16.5373 132.551 16.5614 132.551 16.6096C132.551 16.6458 132.57 16.6639 132.607 16.6639C132.866 16.6639 133.077 16.7663 133.237 16.9712C133.398 17.164 133.602 17.5376 133.849 18.092L136.668 24.5274C136.927 25.0938 137.057 25.5096 137.057 25.7747C137.057 25.847 137.051 25.9013 137.038 25.9374C136.692 26.6846 136.365 27.2148 136.056 27.5282C135.747 27.8415 135.388 27.9982 134.98 27.9982C134.659 27.9982 134.356 27.8717 134.072 27.6186C133.8 27.3776 133.583 27.0883 133.423 26.7509C133.262 26.4134 133.182 26.1302 133.182 25.9012C133.182 25.7687 133.107 25.7868 132.959 25.9555C132.811 26.1242 132.669 26.3472 132.533 26.6243C132.409 26.9136 132.353 27.1305 132.366 27.2751C132.428 27.6005 132.656 27.8777 133.052 28.1066C133.447 28.3477 133.892 28.4682 134.387 28.4682C135.054 28.4682 135.635 28.197 136.13 27.6547C136.637 27.1124 137.187 26.1965 137.78 24.907L140.765 18.092C141 17.5497 141.198 17.1761 141.359 16.9712C141.532 16.7663 141.742 16.6639 141.989 16.6639C142.039 16.6639 142.063 16.6458 142.063 16.6096ZM164.538 44.9081C164.502 44.9081 164.484 44.9376 164.484 44.9965C164.472 45.6089 164.406 46.086 164.287 46.4276C164.179 46.7691 163.94 46.9399 163.569 46.9399C163.354 46.9399 163.198 46.8516 163.103 46.6749C163.019 46.4865 162.977 46.1979 162.977 45.8092V38.53C162.977 37.6348 162.989 36.9458 163.013 36.4628C163.037 35.9799 163.091 35.5441 163.174 35.1554C163.186 35.1083 163.174 35.0789 163.139 35.0671C163.126 35.055 163.114 35.046 163.102 35.0401L163.096 35.0377L163.092 35.0361L163.086 35.0342L163.082 35.0334L163.08 35.0328L163.075 35.0322L163.072 35.0319L163.067 35.0317H163.049C162.726 35.3262 162.343 35.5736 161.901 35.7738C161.471 35.9622 160.974 36.1272 160.412 36.2685C160.388 36.2685 160.388 36.2921 160.412 36.3392C160.436 36.3745 160.472 36.3863 160.52 36.3745C160.64 36.3509 160.717 36.3392 160.753 36.3392C160.944 36.3392 161.088 36.4275 161.184 36.6042C161.291 36.7809 161.345 37.0989 161.345 37.5582V40.6325C161.01 40.2673 160.622 39.9906 160.179 39.8021C159.749 39.6018 159.282 39.5017 158.78 39.5017C158.087 39.5017 157.423 39.7079 156.789 40.1201C156.167 40.5206 155.665 41.0624 155.283 41.7456C154.9 42.4287 154.709 43.1649 154.709 43.954C154.709 44.755 154.864 45.4617 155.175 46.0742C155.498 46.6867 155.922 47.1637 156.448 47.5053C156.987 47.8351 157.56 48 158.17 48C159.498 48 160.502 47.3051 161.184 45.9152C161.231 45.8327 161.279 45.8269 161.327 45.8975L161.363 46.0212V46.1272C161.363 46.7279 161.494 47.1814 161.758 47.4876C162.033 47.7821 162.379 47.9293 162.798 47.9293C163.372 47.9293 163.814 47.6466 164.125 47.0813C164.436 46.5159 164.591 45.821 164.591 44.9965C164.591 44.9376 164.574 44.9081 164.538 44.9081ZM160.789 46.3746C160.442 46.8457 159.928 47.0813 159.247 47.0813C158.696 47.0813 158.182 46.8692 157.704 46.4452C157.226 46.0212 156.843 45.4676 156.556 44.7844C156.269 44.1013 156.126 43.3828 156.126 42.6289C156.126 41.722 156.329 41.0329 156.735 40.5618C157.142 40.0789 157.806 39.8374 158.726 39.8374C159.563 39.8374 160.197 40.1967 160.628 40.9152C161.07 41.6337 161.315 42.4758 161.363 43.4417V44.3251C161.339 45.2203 161.148 45.9034 160.789 46.3746ZM60.6489 47.7526C60.5293 47.7644 60.3799 47.7703 60.2005 47.7703C60.1288 47.7703 60.0869 47.7526 60.075 47.7173C60.075 47.682 60.1108 47.6584 60.1826 47.6466C60.613 47.6349 60.9359 47.5171 61.1511 47.2933C61.3783 47.0577 61.4919 46.6514 61.4919 46.0742V37.0282C61.4919 36.4511 61.3783 36.0506 61.1511 35.8268C60.9359 35.5912 60.613 35.4675 60.1826 35.4558C60.1108 35.444 60.075 35.4204 60.075 35.3851C60.0869 35.3498 60.1228 35.3321 60.1826 35.3321C60.3739 35.3321 60.5353 35.338 60.6668 35.3498L61.169 35.3674C61.7669 35.3674 62.5322 35.3557 63.4649 35.3321C64.4932 35.3085 65.1509 35.2968 65.4378 35.2968C66.7771 35.2968 67.7994 35.5559 68.5049 36.0741C69.2104 36.5806 69.5631 37.2343 69.5631 38.0353C69.5631 38.8245 69.312 39.4605 68.8098 39.9434C68.3195 40.4263 67.6499 40.7208 66.801 40.8268C67.9728 40.9328 68.8995 41.2567 69.581 41.7985C70.2746 42.3404 70.6213 43.106 70.6213 44.0954C70.6213 45.2261 70.1729 46.1272 69.2761 46.7986C68.3793 47.47 67.1059 47.8057 65.4558 47.8057C65.0373 47.8057 64.3138 47.7939 63.2855 47.7703C62.4246 47.7468 61.7191 47.735 61.169 47.735L60.6489 47.7526ZM65.0432 40.7915C65.7368 40.7562 66.2748 40.6442 66.6575 40.4558C67.0401 40.2556 67.3092 39.9787 67.4646 39.6254C67.62 39.2603 67.6978 38.7891 67.6978 38.212C67.6978 37.3639 67.4407 36.7102 66.9265 36.2508C66.4243 35.7797 65.7666 35.5264 64.9536 35.4911L63.7518 35.4381C63.5246 35.4263 63.3752 35.4675 63.3034 35.5618C63.2437 35.656 63.2138 35.8445 63.2138 36.1272V46.7632C63.2138 47.1166 63.2556 47.3581 63.3393 47.4876C63.423 47.6054 63.6143 47.6643 63.9133 47.6643H65.2047C66.2808 47.6643 67.1178 47.3758 67.7157 46.7986C68.3136 46.2214 68.6125 45.4087 68.6125 44.3604C68.6125 42.146 67.4347 41.0153 65.0791 40.9682L64.0209 40.9505C63.9611 40.9505 63.9312 40.9328 63.9312 40.8975C63.9312 40.8622 63.9611 40.8445 64.0209 40.8445L65.0432 40.7915ZM81.4054 44.9965C81.4054 44.9376 81.4233 44.9081 81.4592 44.9081C81.4951 44.9081 81.513 44.9376 81.513 44.9965C81.513 45.8092 81.3516 46.5041 81.0287 47.0813C80.7178 47.6466 80.2814 47.9293 79.7194 47.9293C79.3009 47.9293 78.9541 47.7821 78.6791 47.4876C78.416 47.1814 78.2845 46.7279 78.2845 46.1272V45.5442C78.141 46.2744 77.8122 46.8692 77.298 47.3286C76.7839 47.7762 76.1382 48 75.3609 48C74.488 48 73.7885 47.7114 73.2624 47.1343C72.7363 46.5453 72.4732 45.6855 72.4732 44.5548V41.6925C72.4732 41.3156 72.4134 41.0389 72.2939 40.8622C72.1863 40.6855 71.989 40.5971 71.702 40.5971C71.6542 40.5971 71.5465 40.6089 71.3791 40.6325C71.3313 40.6442 71.3014 40.6384 71.2895 40.6148C71.2895 40.5795 71.3014 40.5559 71.3253 40.5441C71.8395 40.4146 72.3477 40.2614 72.8499 40.0848C73.3521 39.9081 73.7527 39.7196 74.0516 39.5194C74.1114 39.4841 74.1592 39.4723 74.1951 39.4841C74.231 39.4958 74.2489 39.5253 74.2489 39.5724C74.1891 40.1142 74.1473 40.5441 74.1233 40.8622C74.0994 41.1802 74.0875 41.5571 74.0875 41.9929V44.5724C74.0875 46.457 74.7511 47.3993 76.0784 47.3993C76.748 47.3993 77.2801 47.1343 77.6747 46.6042C78.0812 46.0742 78.2845 45.3381 78.2845 44.3957V41.6925C78.2845 41.3156 78.2247 41.0389 78.1052 40.8622C77.9975 40.6855 77.8002 40.5971 77.5133 40.5971C77.4654 40.5971 77.3578 40.6089 77.1904 40.6325C77.1426 40.6442 77.1127 40.6384 77.1007 40.6148C77.1007 40.5795 77.1127 40.5559 77.1366 40.5441C77.6508 40.4146 78.159 40.2614 78.6612 40.0848C79.1634 39.9081 79.5639 39.7196 79.8629 39.5194C79.9227 39.4841 79.9705 39.4723 80.0064 39.4841C80.0422 39.4958 80.0602 39.5253 80.0602 39.5724C80.0004 40.1142 79.9585 40.5441 79.9346 40.8622C79.9107 41.1802 79.8987 41.5571 79.8987 41.9929V45.8092C79.8987 46.1979 79.9406 46.4865 80.0243 46.6749C80.12 46.8516 80.2754 46.9399 80.4906 46.9399C80.8613 46.9399 81.1005 46.7691 81.2081 46.4276C81.3277 46.086 81.3934 45.6089 81.4054 44.9965ZM82.4004 44.5194C82.3765 44.5077 82.3586 44.5253 82.3466 44.5724L81.8982 46.5689C81.8504 46.828 81.958 47.0695 82.221 47.2933C82.4841 47.5171 82.8548 47.6879 83.3331 47.8057C83.8233 47.9352 84.3554 48 84.9294 48C85.6349 48 86.2626 47.894 86.8127 47.682C87.3747 47.4582 87.8051 47.1696 88.1041 46.8163C88.415 46.4511 88.5704 46.0565 88.5704 45.6325C88.5704 45.0554 88.3313 44.5606 87.853 44.1484C87.3866 43.7244 86.7469 43.2944 85.9338 42.8586C85.324 42.5288 84.8696 42.2756 84.5707 42.0989C84.2717 41.9105 84.0266 41.7102 83.8353 41.4982C83.644 41.2744 83.5483 41.0389 83.5483 40.7915C83.5483 40.4852 83.6619 40.2438 83.8891 40.0671C84.1282 39.8904 84.5587 39.8021 85.1805 39.8021C86.0892 39.8021 86.7469 40.0376 87.1534 40.5088C87.572 40.9682 87.7812 41.6926 87.7812 42.682C87.7693 42.7291 87.7752 42.7526 87.7992 42.7526C87.835 42.7526 87.8589 42.735 87.8709 42.6996L88.3731 40.7385C88.4688 40.338 88.1997 40.0318 87.566 39.8197C86.9442 39.6077 86.2447 39.5017 85.4675 39.5017C84.8457 39.5017 84.2837 39.6018 83.7815 39.8021C83.2793 40.0023 82.8847 40.2732 82.5977 40.6148C82.3107 40.9446 82.1672 41.298 82.1672 41.6749C82.1672 42.1343 82.3645 42.5347 82.7591 42.8763C83.1537 43.2179 83.7396 43.6007 84.5169 44.0247C85.3778 44.4723 86.0056 44.8728 86.4001 45.2261C86.8067 45.5677 87.0159 45.98 87.0279 46.4629C87.0279 46.9223 86.8605 47.2462 86.5257 47.4346C86.2028 47.6231 85.7425 47.7173 85.1446 47.7173C84.2598 47.7173 83.5842 47.4523 83.1179 46.9223C82.6515 46.3922 82.4303 45.6148 82.4542 44.5901C82.4542 44.543 82.4363 44.5194 82.4004 44.5194ZM92.3839 46.1626C92.3839 46.5866 92.4736 46.9399 92.6529 47.2226C92.8443 47.4935 93.1133 47.6349 93.4601 47.6466C93.5198 47.6466 93.5497 47.6702 93.5497 47.7173C93.5497 47.7526 93.5198 47.7703 93.4601 47.7703C93.2448 47.7586 92.6231 47.7526 91.5947 47.7526C90.5664 47.7526 89.9386 47.7586 89.7114 47.7703C89.6517 47.7703 89.6218 47.7526 89.6218 47.7173C89.6218 47.6702 89.6517 47.6466 89.7114 47.6466C90.4169 47.6466 90.7697 47.152 90.7697 46.1626V41.6925C90.7697 41.3156 90.7099 41.0389 90.5903 40.8622C90.4827 40.6855 90.2854 40.5971 89.9984 40.5971C89.9506 40.5971 89.843 40.6089 89.6756 40.6325C89.6277 40.6442 89.5978 40.6384 89.5859 40.6148C89.5859 40.5795 89.6038 40.5559 89.6397 40.5441C90.8952 40.2379 91.804 39.8963 92.366 39.5194C92.4138 39.4841 92.4556 39.4723 92.4915 39.4841C92.5394 39.4958 92.5633 39.5253 92.5633 39.5724C92.4915 40.1024 92.4437 40.5265 92.4198 40.8445C92.3959 41.1625 92.3839 41.5453 92.3839 41.9929V46.1626ZM91.3257 37.4346C91.0148 37.4346 90.7697 37.3698 90.5903 37.2402C90.4109 37.0989 90.3213 36.9281 90.3213 36.7279C90.3213 36.4687 90.4408 36.2508 90.68 36.0741C90.9191 35.8857 91.23 35.7915 91.6127 35.7915C91.9235 35.7915 92.1687 35.8621 92.348 36.0035C92.5393 36.133 92.635 36.3038 92.635 36.5158C92.635 36.7632 92.5095 36.9811 92.2584 37.1696C92.0192 37.3462 91.7083 37.4346 91.3257 37.4346ZM105.61 44.9081C105.562 44.9081 105.538 44.9376 105.538 44.9965C105.538 45.4441 105.496 45.821 105.412 46.1272C105.329 46.4217 105.221 46.6396 105.09 46.7809C104.958 46.9223 104.833 46.9929 104.713 46.9929C104.546 46.9929 104.402 46.9105 104.283 46.7456C104.175 46.5689 104.079 46.3098 103.996 45.9682L102.883 41.5335C102.716 40.8386 102.447 40.3262 102.076 39.9964C101.718 39.6666 101.15 39.5017 100.372 39.5017C99.6909 39.5017 99.0571 39.7373 98.4712 40.2085C97.8973 40.6796 97.5146 41.245 97.3233 41.9046C97.3233 41.4805 97.3353 41.1154 97.3592 40.8092C97.3831 40.5029 97.4309 40.0907 97.5027 39.5724C97.5027 39.5253 97.4788 39.4958 97.4309 39.4841C97.3951 39.4723 97.3532 39.4841 97.3054 39.5194C96.7434 39.8963 95.8346 40.2379 94.5791 40.5441C94.5432 40.5559 94.5253 40.5795 94.5253 40.6148C94.5373 40.6384 94.5672 40.6442 94.615 40.6325C94.7824 40.6089 94.89 40.5971 94.9378 40.5971C95.2248 40.5971 95.4221 40.6855 95.5297 40.8622C95.6493 41.0389 95.7091 41.3156 95.7091 41.6925V46.3569C95.7091 46.7338 95.6672 47.0165 95.5835 47.2049C95.5118 47.3816 95.4042 47.4994 95.2607 47.5583C95.1172 47.6172 94.9139 47.6466 94.6509 47.6466C94.5911 47.6466 94.5612 47.6702 94.5612 47.7173C94.5612 47.7526 94.5911 47.7703 94.6509 47.7703C94.9259 47.7586 95.5536 47.7526 96.5341 47.7526C97.5266 47.7526 98.1484 47.7586 98.3995 47.7703C98.4593 47.7703 98.4892 47.7526 98.4892 47.7173C98.4892 47.6702 98.4593 47.6466 98.3995 47.6466C98.0288 47.6349 97.7538 47.5347 97.5744 47.3463C97.407 47.1578 97.3233 46.8339 97.3233 46.3746V42.9646C97.3951 42.1048 97.6402 41.4275 98.0587 40.9328C98.4892 40.4263 99.0033 40.1731 99.6012 40.1731C100.127 40.1731 100.498 40.2909 100.713 40.5265C100.94 40.7503 101.12 41.1213 101.251 41.6395L102.381 46.2332C102.656 47.3875 103.135 47.9647 103.816 47.9647C104.127 47.9647 104.426 47.8528 104.713 47.629C105 47.4052 105.233 47.0695 105.412 46.6219C105.592 46.1743 105.682 45.6325 105.682 44.9965C105.682 44.9258 105.658 44.8964 105.61 44.9081ZM113.585 46.2155C113.597 46.192 113.615 46.192 113.639 46.2155C113.675 46.2391 113.681 46.2686 113.657 46.3039C113.203 46.8692 112.665 47.2933 112.043 47.576C111.421 47.8469 110.752 47.9823 110.034 47.9823C109.305 47.9823 108.629 47.8115 108.007 47.47C107.386 47.1284 106.889 46.6455 106.519 46.0212C106.148 45.3969 105.963 44.6843 105.963 43.8834C105.963 43.0589 106.16 42.3168 106.554 41.6572C106.961 40.9858 107.505 40.4617 108.187 40.0848C108.868 39.6961 109.61 39.5017 110.411 39.5017C111.308 39.5017 112.049 39.7491 112.635 40.2438C113.233 40.7385 113.532 41.404 113.532 42.2403C113.532 42.6525 113.466 43.053 113.334 43.4417C112.354 43.4534 110.369 43.5006 107.38 43.583C107.523 44.278 107.804 44.8964 108.223 45.4382C108.653 45.98 109.149 46.3981 109.711 46.6926C110.273 46.987 110.823 47.1343 111.361 47.1343C112.354 47.1343 113.095 46.828 113.585 46.2155ZM109.729 39.8021C108.94 39.8021 108.336 40.0376 107.918 40.5088C107.499 40.9682 107.29 41.669 107.29 42.6113C107.29 42.9411 107.314 43.2297 107.362 43.477L109.478 43.4063C109.992 43.371 110.787 43.3416 111.864 43.318C111.959 43.1295 112.007 42.894 112.007 42.6113C112.007 42.199 111.899 41.775 111.684 41.3392C111.469 40.8916 111.182 40.5265 110.823 40.2438C110.477 39.9493 110.112 39.8021 109.729 39.8021ZM115.137 44.5194C115.113 44.5077 115.095 44.5253 115.083 44.5724L114.635 46.5689C114.587 46.828 114.695 47.0695 114.958 47.2933C115.221 47.5171 115.592 47.6879 116.07 47.8057C116.56 47.9352 117.092 48 117.666 48C118.372 48 118.999 47.894 119.549 47.682C120.111 47.4582 120.542 47.1696 120.841 46.8163C121.152 46.4511 121.307 46.0565 121.307 45.6325C121.307 45.0554 121.068 44.5606 120.59 44.1484C120.123 43.7244 119.484 43.2944 118.671 42.8586C118.061 42.5288 117.606 42.2756 117.307 42.0989C117.008 41.9105 116.763 41.7102 116.572 41.4982C116.381 41.2744 116.285 41.0389 116.285 40.7915C116.285 40.4852 116.399 40.2438 116.626 40.0671C116.865 39.8904 117.295 39.8021 117.917 39.8021C118.826 39.8021 119.484 40.0376 119.89 40.5088C120.309 40.9682 120.518 41.6926 120.518 42.682C120.506 42.7291 120.512 42.7526 120.536 42.7526C120.572 42.7526 120.596 42.735 120.608 42.6996L121.11 40.7385C121.206 40.338 120.936 40.0318 120.303 39.8197C119.681 39.6077 118.981 39.5017 118.204 39.5017C117.582 39.5017 117.02 39.6018 116.518 39.8021C116.016 40.0023 115.621 40.2732 115.334 40.6148C115.047 40.9446 114.904 41.298 114.904 41.6749C114.904 42.1343 115.101 42.5347 115.496 42.8763C115.89 43.2179 116.476 43.6007 117.254 44.0247C118.115 44.4723 118.742 44.8728 119.137 45.2261C119.543 45.5677 119.753 45.98 119.765 46.4629C119.765 46.9223 119.597 47.2462 119.262 47.4346C118.94 47.6231 118.479 47.7173 117.881 47.7173C116.997 47.7173 116.321 47.4523 115.855 46.9223C115.388 46.3922 115.167 45.6148 115.191 44.5901C115.191 44.543 115.173 44.5194 115.137 44.5194ZM122.843 44.5724C122.855 44.5253 122.873 44.5077 122.897 44.5194C122.932 44.5194 122.95 44.543 122.95 44.5901C122.926 45.6148 123.148 46.3922 123.614 46.9223C124.08 47.4523 124.756 47.7173 125.641 47.7173C126.239 47.7173 126.699 47.6231 127.022 47.4346C127.357 47.2462 127.524 46.9223 127.524 46.4629C127.512 45.98 127.303 45.5677 126.896 45.2261C126.502 44.8728 125.874 44.4723 125.013 44.0247C124.236 43.6007 123.65 43.2179 123.255 42.8763C122.861 42.5347 122.663 42.1343 122.663 41.6749C122.663 41.298 122.807 40.9446 123.094 40.6148C123.381 40.2732 123.775 40.0023 124.278 39.8021C124.78 39.6018 125.342 39.5017 125.964 39.5017C126.741 39.5017 127.44 39.6077 128.062 39.8197C128.696 40.0318 128.965 40.338 128.869 40.7385L128.367 42.6996C128.355 42.735 128.331 42.7526 128.295 42.7526C128.271 42.7526 128.265 42.7291 128.277 42.682C128.277 41.6926 128.068 40.9682 127.65 40.5088C127.243 40.0376 126.585 39.8021 125.677 39.8021C125.055 39.8021 124.624 39.8904 124.385 40.0671C124.158 40.2438 124.045 40.4852 124.045 40.7915C124.045 41.0389 124.14 41.2744 124.331 41.4982C124.523 41.7102 124.768 41.9105 125.067 42.0989C125.366 42.2756 125.82 42.5288 126.43 42.8586C127.243 43.2944 127.883 43.7244 128.349 44.1484C128.827 44.5606 129.067 45.0554 129.067 45.6325C129.067 46.0565 128.911 46.4511 128.6 46.8163C128.301 47.1696 127.871 47.4582 127.309 47.682C126.759 47.894 126.131 48 125.426 48C124.852 48 124.32 47.9352 123.829 47.8057C123.351 47.6879 122.98 47.5171 122.717 47.2933C122.454 47.0695 122.347 46.828 122.394 46.5689L122.843 44.5724ZM143.247 44.9081C143.211 44.9081 143.193 44.9376 143.193 44.9965C143.193 45.4441 143.145 45.821 143.05 46.1272C142.966 46.4217 142.858 46.6396 142.727 46.7809C142.607 46.9223 142.488 46.9929 142.368 46.9929C142.201 46.9929 142.063 46.9046 141.955 46.7279C141.86 46.5512 141.77 46.298 141.686 45.9682L140.79 41.8516C140.598 41.0271 140.269 40.4323 139.803 40.0671C139.337 39.6902 138.625 39.5017 137.669 39.5017C137.107 39.5017 136.545 39.6254 135.983 39.8728C135.433 40.1083 134.966 40.4617 134.584 40.9328C134.201 41.404 133.992 41.9694 133.956 42.6289C133.944 42.7114 133.962 42.7526 134.01 42.7526C134.058 42.7526 134.088 42.7114 134.099 42.6289C134.135 41.7573 134.428 41.1036 134.978 40.6678C135.528 40.2202 136.18 39.9964 136.933 39.9964C137.579 39.9964 138.063 40.1378 138.386 40.4205C138.709 40.7031 138.936 41.1448 139.068 41.7456L139.444 43.4417C138.727 43.3239 137.986 43.265 137.22 43.265C136.3 43.265 135.528 43.4476 134.907 43.8127C134.285 44.1778 133.968 44.6608 133.956 45.2615C133.944 45.7326 134.04 46.1743 134.243 46.5866C134.458 46.9988 134.787 47.3345 135.229 47.5936C135.672 47.8528 136.216 47.9823 136.862 47.9823C137.531 47.9823 138.147 47.7644 138.709 47.3286C139.283 46.881 139.684 46.2803 139.911 45.5265L140.072 46.2155C140.311 47.3934 140.778 47.9823 141.471 47.9823C141.782 47.9823 142.075 47.8704 142.35 47.6466C142.637 47.4229 142.87 47.0871 143.05 46.6396C143.229 46.1802 143.319 45.6325 143.319 44.9965C143.319 44.9258 143.295 44.8964 143.247 44.9081ZM139.731 44.6784C139.743 44.7844 139.737 44.9199 139.713 45.0848C139.594 46.4511 138.876 47.1343 137.561 47.1343C136.868 47.1343 136.341 46.9399 135.983 46.5512C135.636 46.1508 135.463 45.656 135.463 45.0671C135.463 44.49 135.63 44.0954 135.965 43.8834C136.3 43.6596 136.856 43.5477 137.633 43.5477C138.171 43.5477 138.799 43.6184 139.516 43.7597L139.731 44.6784ZM154.284 44.9965C154.284 44.9376 154.308 44.9081 154.356 44.9081C154.404 44.8964 154.428 44.9258 154.428 44.9965C154.428 45.6325 154.338 46.1743 154.159 46.6219C153.979 47.0695 153.746 47.4052 153.459 47.629C153.172 47.8528 152.873 47.9647 152.562 47.9647C151.881 47.9647 151.402 47.3875 151.127 46.2332L149.997 41.6395C149.866 41.1213 149.687 40.7503 149.459 40.5265C149.244 40.2909 148.873 40.1731 148.347 40.1731C147.749 40.1731 147.235 40.4263 146.805 40.9328C146.386 41.4275 146.141 42.1048 146.069 42.9646V46.3746C146.069 46.8339 146.153 47.1578 146.32 47.3463C146.5 47.5347 146.775 47.6349 147.146 47.6466C147.205 47.6466 147.235 47.6702 147.235 47.7173C147.235 47.7526 147.205 47.7703 147.146 47.7703C146.894 47.7586 146.273 47.7526 145.28 47.7526C144.3 47.7526 143.672 47.7586 143.397 47.7703C143.337 47.7703 143.307 47.7526 143.307 47.7173C143.307 47.6702 143.337 47.6466 143.397 47.6466C143.66 47.6466 143.863 47.6172 144.007 47.5583C144.15 47.4994 144.258 47.3816 144.33 47.2049C144.413 47.0165 144.455 46.7338 144.455 46.3569V41.6925C144.455 41.3156 144.395 41.0389 144.276 40.8622C144.168 40.6855 143.971 40.5971 143.684 40.5971C143.636 40.5971 143.528 40.6089 143.361 40.6325C143.313 40.6442 143.283 40.6384 143.271 40.6148C143.271 40.5795 143.289 40.5559 143.325 40.5441C144.581 40.2379 145.489 39.8963 146.051 39.5194C146.099 39.4841 146.141 39.4723 146.177 39.4841C146.225 39.4958 146.249 39.5253 146.249 39.5724C146.177 40.0907 146.129 40.5029 146.105 40.8092C146.081 41.1154 146.069 41.4805 146.069 41.9046C146.261 41.245 146.643 40.6796 147.217 40.2085C147.803 39.7373 148.437 39.5017 149.119 39.5017C149.896 39.5017 150.464 39.6666 150.822 39.9964C151.193 40.3262 151.462 40.8386 151.63 41.5335L152.742 45.9682C152.825 46.3098 152.921 46.5689 153.029 46.7456C153.148 46.9105 153.292 46.9929 153.459 46.9929C153.579 46.9929 153.704 46.9223 153.836 46.7809C153.967 46.6396 154.075 46.4217 154.159 46.1272C154.242 45.821 154.284 45.4441 154.284 44.9965ZM170.267 42.5917C170.273 42.6005 170.278 42.6129 170.284 42.6289C170.296 42.6525 170.296 42.6938 170.284 42.7526C170.26 42.9646 170.248 43.2709 170.248 43.6714C170.248 45.0495 170.553 46.0683 171.163 46.7279C171.772 47.3757 172.693 47.6996 173.925 47.6996C174.702 47.6996 175.384 47.5347 175.969 47.2049C176.567 46.8634 176.866 46.2332 176.866 45.3145C176.866 44.5253 176.573 43.8716 175.987 43.3533C175.401 42.8233 174.57 42.2933 173.494 41.7632C172.705 41.3392 172.065 40.9682 171.575 40.6501C171.085 40.3203 170.69 39.9552 170.391 39.5547C170.092 39.1542 169.943 38.7067 169.943 38.212C169.943 37.7055 170.128 37.2167 170.499 36.7455C170.87 36.2626 171.408 35.8739 172.113 35.5794C172.819 35.2732 173.638 35.1201 174.57 35.1201C175.144 35.1201 175.712 35.2025 176.274 35.3674C176.836 35.5323 177.297 35.7679 177.655 36.0741C178.026 36.3686 178.211 36.7102 178.211 37.0989C178.211 37.1578 178.199 37.2461 178.176 37.3639L177.53 40.0141C177.518 40.0848 177.494 40.1201 177.458 40.1201C177.41 40.1201 177.392 40.0671 177.404 39.9611C177.452 39.6313 177.476 39.2779 177.476 38.901C177.476 37.7703 177.195 36.9104 176.633 36.3215C176.083 35.7208 175.258 35.4204 174.158 35.4204C173.189 35.4204 172.508 35.5794 172.113 35.8975C171.731 36.2155 171.539 36.6925 171.539 37.3286C171.539 37.7644 171.665 38.1472 171.916 38.477C172.179 38.8068 172.52 39.1071 172.938 39.378C173.369 39.6372 173.955 39.9552 174.696 40.3321C175.509 40.7326 176.173 41.1036 176.687 41.4452C177.201 41.775 177.632 42.1873 177.978 42.682C178.337 43.1767 178.516 43.7538 178.516 44.4134C178.516 45.073 178.313 45.6796 177.907 46.2332C177.5 46.775 176.926 47.2049 176.185 47.523C175.443 47.841 174.582 48 173.602 48C172.825 48 172.113 47.894 171.468 47.682C170.834 47.4582 170.338 47.1696 169.979 46.8163C169.62 46.4511 169.441 46.0683 169.441 45.6678C169.441 45.5618 169.447 45.4794 169.459 45.4205L170.158 42.7173C170.182 42.6231 170.212 42.576 170.248 42.576L170.252 42.5766L170.258 42.5799C170.26 42.5818 170.262 42.5843 170.265 42.5876L170.267 42.5917ZM186.057 43.8834C186.104 43.8951 186.134 43.8716 186.146 43.8127L186.971 41.0918C186.983 41.0565 186.989 41.0094 186.989 40.9505C186.989 40.7149 186.852 40.4852 186.577 40.2614C186.314 40.0376 185.955 39.8551 185.501 39.7137C185.058 39.5724 184.574 39.5017 184.048 39.5017C183.235 39.5017 182.481 39.6961 181.788 40.0848C181.106 40.4735 180.562 41.0035 180.156 41.6749C179.749 42.3345 179.546 43.0706 179.546 43.8834C179.546 44.6843 179.731 45.3969 180.102 46.0212C180.473 46.6455 180.969 47.1284 181.591 47.47C182.224 47.8115 182.912 47.9823 183.653 47.9823C184.395 47.9823 185.064 47.8469 185.662 47.576C186.26 47.3051 186.798 46.8752 187.276 46.2862C187.3 46.2509 187.3 46.2214 187.276 46.1979C187.264 46.1743 187.234 46.1802 187.187 46.2155C186.9 46.5689 186.553 46.8104 186.146 46.9399C185.74 47.0695 185.345 47.1343 184.963 47.1343C184.329 47.1343 183.695 46.9458 183.061 46.5689C182.44 46.1802 181.925 45.6384 181.519 44.9434C181.124 44.2485 180.927 43.4652 180.927 42.5936C180.927 40.7679 181.758 39.8551 183.42 39.8551C183.922 39.8551 184.377 40.0082 184.783 40.3145C185.202 40.6089 185.531 41.0035 185.77 41.4982C186.009 41.9929 186.128 42.5053 186.128 43.0353C186.128 43.2591 186.099 43.5065 186.039 43.7774C186.015 43.8362 186.021 43.8716 186.057 43.8834ZM191.073 47.2226C191.265 47.4935 191.534 47.6349 191.881 47.6466C191.94 47.6466 191.97 47.6702 191.97 47.7173C191.97 47.7332 191.964 47.7455 191.952 47.7543C191.937 47.765 191.913 47.7703 191.881 47.7703C191.665 47.7586 191.044 47.7526 190.015 47.7526C188.987 47.7526 188.359 47.7586 188.132 47.7703C188.072 47.7703 188.042 47.7526 188.042 47.7173C188.042 47.6702 188.072 47.6466 188.132 47.6466C188.837 47.6466 189.19 47.152 189.19 46.1626V41.6925C189.19 41.3156 189.13 41.0389 189.011 40.8622C188.903 40.6855 188.706 40.5971 188.419 40.5971C188.371 40.5971 188.263 40.6089 188.096 40.6325C188.048 40.6442 188.018 40.6384 188.006 40.6148C188.006 40.5795 188.024 40.5559 188.06 40.5441C189.316 40.2379 190.224 39.8963 190.786 39.5194C190.834 39.4841 190.876 39.4723 190.912 39.4841C190.96 39.4958 190.984 39.5253 190.984 39.5724C190.912 40.1024 190.864 40.5265 190.84 40.8445C190.816 41.1625 190.804 41.5453 190.804 41.9929V46.1626C190.804 46.5866 190.894 46.9399 191.073 47.2226ZM189.746 37.4346C189.435 37.4346 189.19 37.3698 189.011 37.2402C188.831 37.0989 188.742 36.9281 188.742 36.7279C188.742 36.4687 188.861 36.2508 189.1 36.0741C189.34 35.8857 189.65 35.7915 190.033 35.7915C190.344 35.7915 190.589 35.8621 190.768 36.0035C190.96 36.133 191.055 36.3038 191.055 36.5158C191.055 36.7632 190.93 36.9811 190.679 37.1696C190.44 37.3462 190.129 37.4346 189.746 37.4346ZM200.604 46.2155C200.581 46.192 200.563 46.192 200.551 46.2155C200.06 46.828 199.319 47.1343 198.327 47.1343C197.789 47.1343 197.238 46.987 196.676 46.6926C196.114 46.3981 195.618 45.98 195.188 45.4382C194.769 44.8964 194.488 44.278 194.345 43.583C197.334 43.5006 199.319 43.4534 200.3 43.4417C200.431 43.053 200.497 42.6525 200.497 42.2403C200.497 41.404 200.198 40.7385 199.6 40.2438C199.014 39.7491 198.273 39.5017 197.376 39.5017C196.575 39.5017 195.833 39.6961 195.152 40.0848C194.47 40.4617 193.926 40.9858 193.52 41.6572C193.125 42.3168 192.928 43.0589 192.928 43.8834C192.928 44.6843 193.113 45.3969 193.484 46.0212C193.855 46.6455 194.351 47.1284 194.973 47.47C195.594 47.8115 196.27 47.9823 196.999 47.9823C197.717 47.9823 198.386 47.8469 199.008 47.576C199.63 47.2933 200.168 46.8692 200.622 46.3039C200.646 46.2686 200.64 46.2391 200.604 46.2155ZM194.883 40.5088C195.301 40.0376 195.905 39.8021 196.694 39.8021C197.077 39.8021 197.442 39.9493 197.789 40.2438C198.147 40.5265 198.434 40.8916 198.649 41.3392C198.865 41.775 198.972 42.199 198.972 42.6113C198.972 42.894 198.924 43.1295 198.829 43.318C197.753 43.3416 196.957 43.371 196.443 43.4063L194.327 43.477C194.279 43.2297 194.255 42.9411 194.255 42.6113C194.255 41.669 194.464 40.9682 194.883 40.5088ZM212.541 44.9965C212.541 44.9376 212.565 44.9081 212.613 44.9081C212.661 44.8964 212.685 44.9258 212.685 44.9965C212.685 45.6325 212.595 46.1743 212.416 46.6219C212.236 47.0695 212.003 47.4052 211.716 47.629C211.429 47.8528 211.13 47.9647 210.819 47.9647C210.138 47.9647 209.659 47.3875 209.384 46.2332L208.254 41.6395C208.123 41.1213 207.944 40.7503 207.716 40.5265C207.501 40.2909 207.13 40.1731 206.604 40.1731C206.006 40.1731 205.492 40.4263 205.062 40.9328C204.643 41.4275 204.398 42.1048 204.326 42.9646V46.3746C204.326 46.8339 204.41 47.1578 204.578 47.3463C204.757 47.5347 205.032 47.6349 205.403 47.6466C205.462 47.6466 205.492 47.6702 205.492 47.7173C205.492 47.7526 205.462 47.7703 205.403 47.7703C205.152 47.7586 204.53 47.7526 203.537 47.7526C202.557 47.7526 201.929 47.7586 201.654 47.7703C201.594 47.7703 201.564 47.7526 201.564 47.7173C201.564 47.6702 201.594 47.6466 201.654 47.6466C201.917 47.6466 202.12 47.6172 202.264 47.5583C202.407 47.4994 202.515 47.3816 202.587 47.2049C202.67 47.0165 202.712 46.7338 202.712 46.3569V41.6925C202.712 41.3156 202.652 41.0389 202.533 40.8622C202.425 40.6855 202.228 40.5971 201.941 40.5971C201.893 40.5971 201.786 40.6089 201.618 40.6325C201.588 40.6398 201.566 40.6403 201.55 40.634C201.547 40.6327 201.544 40.6312 201.541 40.6294C201.536 40.6256 201.531 40.6208 201.528 40.6148C201.528 40.5795 201.546 40.5559 201.582 40.5441C202.838 40.2379 203.747 39.8963 204.309 39.5194C204.356 39.4841 204.398 39.4723 204.434 39.4841C204.482 39.4958 204.506 39.5253 204.506 39.5724C204.434 40.0907 204.386 40.5029 204.362 40.8092C204.338 41.1154 204.326 41.4805 204.326 41.9046C204.518 41.245 204.9 40.6796 205.474 40.2085C206.06 39.7373 206.694 39.5017 207.376 39.5017C208.153 39.5017 208.721 39.6666 209.079 39.9964C209.45 40.3262 209.719 40.8386 209.887 41.5335L210.999 45.9682C211.082 46.3098 211.178 46.5689 211.286 46.7456C211.405 46.9105 211.549 46.9929 211.716 46.9929C211.836 46.9929 211.961 46.9223 212.093 46.7809C212.224 46.6396 212.332 46.4217 212.416 46.1272C212.499 45.821 212.541 45.4441 212.541 44.9965ZM219.476 43.8834C219.524 43.8951 219.554 43.8716 219.566 43.8127L220.391 41.0918C220.403 41.0565 220.409 41.0094 220.409 40.9505C220.409 40.7149 220.272 40.4852 219.997 40.2614C219.734 40.0376 219.375 39.8551 218.92 39.7137C218.478 39.5724 217.994 39.5017 217.468 39.5017C216.655 39.5017 215.901 39.6961 215.208 40.0848C214.526 40.4735 213.982 41.0035 213.576 41.6749C213.169 42.3345 212.966 43.0706 212.966 43.8834C212.966 44.6843 213.151 45.3969 213.522 46.0212C213.892 46.6455 214.389 47.1284 215.01 47.47C215.644 47.8115 216.332 47.9823 217.073 47.9823C217.814 47.9823 218.484 47.8469 219.082 47.576C219.68 47.3051 220.218 46.8752 220.696 46.2862C220.72 46.2509 220.72 46.2214 220.696 46.1979C220.684 46.1743 220.654 46.1802 220.607 46.2155C220.32 46.5689 219.973 46.8104 219.566 46.9399C219.16 47.0695 218.765 47.1343 218.382 47.1343C217.749 47.1343 217.115 46.9458 216.481 46.5689C215.859 46.1802 215.345 45.6384 214.939 44.9434C214.544 44.2485 214.347 43.4652 214.347 42.5936C214.347 40.7679 215.178 39.8551 216.84 39.8551C217.342 39.8551 217.796 40.0082 218.203 40.3145C218.622 40.6089 218.95 41.0035 219.19 41.4982C219.429 41.9929 219.548 42.5053 219.548 43.0353C219.548 43.2591 219.518 43.5065 219.459 43.7774C219.435 43.8362 219.441 43.8716 219.476 43.8834ZM229.031 46.2155C229.043 46.192 229.061 46.192 229.085 46.2155C229.121 46.2391 229.127 46.2686 229.103 46.3039C228.648 46.8692 228.11 47.2933 227.489 47.576C226.867 47.8469 226.197 47.9823 225.48 47.9823C224.75 47.9823 224.075 47.8115 223.453 47.47C222.831 47.1284 222.335 46.6455 221.964 46.0212C221.594 45.3969 221.408 44.6843 221.408 43.8834C221.408 43.0589 221.606 42.3168 222 41.6572C222.407 40.9858 222.951 40.4617 223.632 40.0848C224.314 39.6961 225.055 39.5017 225.856 39.5017C226.753 39.5017 227.495 39.7491 228.08 40.2438C228.678 40.7385 228.977 41.404 228.977 42.2403C228.977 42.6525 228.912 43.053 228.78 43.4417C227.799 43.4534 225.815 43.5006 222.825 43.583C222.969 44.278 223.25 44.8964 223.668 45.4382C224.099 45.98 224.595 46.3981 225.157 46.6926C225.719 46.987 226.269 47.1343 226.807 47.1343C227.799 47.1343 228.541 46.828 229.031 46.2155ZM225.175 39.8021C224.386 39.8021 223.782 40.0376 223.363 40.5088C222.945 40.9682 222.736 41.669 222.736 42.6113C222.736 42.9411 222.759 43.2297 222.807 43.477L224.924 43.4063C225.438 43.371 226.233 43.3416 227.309 43.318C227.405 43.1295 227.453 42.894 227.453 42.6113C227.453 42.199 227.345 41.775 227.13 41.3392C226.915 40.8916 226.628 40.5265 226.269 40.2438C225.922 39.9493 225.557 39.8021 225.175 39.8021Z" fill="white"/>
</svg>
